<?xml version="1.0" encoding="utf-8"?>
<svg width="30" height="30" viewBox="0 0 30 30" xmlns="http://www.w3.org/2000/svg">
  <path fill="currentColor" d="M 4.405 1.989 C 3.086 1.989 2.019 3.059 2.019 4.38 L 2.019 25.555 C 2.019 26.743 2.891 27.751 4.064 27.921 L 4.064 18.042 C 4.064 16.343 5.436 14.967 7.13 14.967 L 22.805 14.967 C 24.498 14.967 25.87 16.343 25.87 18.042 L 25.87 27.921 C 27.045 27.751 27.916 26.743 27.916 25.555 L 27.916 7.844 C 27.916 7.209 27.665 6.601 27.216 6.152 L 23.761 2.69 C 23.313 2.242 22.706 1.989 22.075 1.989 L 21.782 1.989 L 21.782 7.795 C 21.782 9.493 20.409 10.868 18.716 10.868 L 9.857 10.868 C 8.163 10.868 6.789 9.493 6.789 7.795 L 6.789 1.989 L 4.405 1.989 Z M 8.834 1.989 L 8.834 7.795 C 8.834 8.36 9.293 8.82 9.857 8.82 L 18.716 8.82 C 19.28 8.82 19.738 8.36 19.738 7.795 L 19.738 1.989 L 8.834 1.989 Z M 23.826 27.945 L 23.826 18.042 C 23.826 17.475 23.369 17.016 22.805 17.016 L 7.13 17.016 C 6.566 17.016 6.108 17.475 6.108 18.042 L 6.108 27.945 L 23.826 27.945 Z M -0.025 4.38 C -0.025 1.927 1.958 -0.06 4.405 -0.06 L 22.076 -0.06 C 23.25 -0.06 24.376 0.407 25.207 1.24 L 28.662 4.703 C 29.494 5.537 29.96 6.665 29.96 7.844 L 29.96 25.555 C 29.96 28.006 27.977 29.995 25.53 29.995 L 4.405 29.995 C 1.958 29.995 -0.025 28.006 -0.025 25.555 L -0.025 4.38 Z" style=""/>
</svg>